<?xml version="1.0" encoding="UTF-8" standalone="no"?>
<!-- Created with Inkscape (http://www.inkscape.org/) -->

<svg
   xmlns:dc="http://purl.org/dc/elements/1.1/"
   xmlns:cc="http://creativecommons.org/ns#"
   xmlns:rdf="http://www.w3.org/1999/02/22-rdf-syntax-ns#"
   xmlns:svg="http://www.w3.org/2000/svg"
   xmlns="http://www.w3.org/2000/svg"
   xmlns:sodipodi="http://sodipodi.sourceforge.net/DTD/sodipodi-0.dtd"
   xmlns:inkscape="http://www.inkscape.org/namespaces/inkscape"
   width="137"
   height="200"
   id="svg2"
   sodipodi:version="0.32"
   inkscape:version="0.48.2 r9819"
   version="1.0"
   sodipodi:docname="J Llpd+1½.svg"
   inkscape:output_extension="org.inkscape.output.svg.inkscape">
  <defs
     id="defs4" />
  <sodipodi:namedview
     id="base"
     pagecolor="#ffffff"
     bordercolor="#666666"
     borderopacity="1.0"
     inkscape:pageopacity="0.0"
     inkscape:pageshadow="2"
     inkscape:zoom="1.3275862"
     inkscape:cx="57.454546"
     inkscape:cy="170.69879"
     inkscape:document-units="px"
     inkscape:current-layer="layer1"
     showgrid="false"
     inkscape:window-width="832"
     inkscape:window-height="667"
     inkscape:window-x="22"
     inkscape:window-y="29"
     fit-margin-top="6"
     fit-margin-bottom="6"
     fit-margin-left="6"
     fit-margin-right="6"
     inkscape:window-maximized="0"
     showborder="true" />
  <metadata
     id="metadata7">
    <rdf:RDF>
      <cc:Work
         rdf:about="">
        <dc:format>image/svg+xml</dc:format>
        <dc:type
           rdf:resource="http://purl.org/dc/dcmitype/StillImage" />
        <dc:title />
      </cc:Work>
    </rdf:RDF>
  </metadata>
  <g
     inkscape:label="Calque 1"
     inkscape:groupmode="layer"
     id="layer1"
     transform="translate(-3,-144.69877)">
    <path
       style="fill:#000000"
       d="m 27.260731,337.78867 c -1.548287,-1.16644 -1.594066,-1.68422 -1.594066,-18.02941 l 0,-16.82847 -3.815924,1.13315 c -5.391858,1.60113 -7.973049,1.47126 -10.636289,-0.53516 C 9,301.86047 9,301.86047 9,293.78231 c 0,-8.07815 0,-8.07815 2.21903,-9.74991 1.220468,-0.91947 4.970467,-2.60594 8.333334,-3.74771 l 6.114301,-2.07595 0,-17.3174 0,-17.3174 -3.815924,1.13315 c -5.391858,1.60113 -7.973049,1.47126 -10.636289,-0.53516 C 9,242.50362 9,242.50362 9,234.39407 c 0,-8.10954 0,-8.10954 2.546551,-9.91893 1.400604,-0.99516 5.065376,-2.60652 8.143939,-3.5808 l 5.597387,-1.77142 0.378788,-18.46003 c 0.227699,-11.0968 0.689731,-18.85406 1.158339,-19.44788 1.099303,-1.39302 4.929286,-1.84751 6.796207,-0.80649 1.440801,0.80341 1.533738,1.68288 1.893938,17.92264 l 0.378788,17.07777 15.340909,-5.43792 15.340907,-5.43792 0.02409,-18.58473 c 0.02626,-20.24974 0.03187,-20.27683 4.334655,-20.92516 1.740907,-0.26231 2.689937,-0.0542 3.89567,0.85414 1.549352,1.16724 1.594068,1.68006 1.594068,18.28125 l 0,17.08031 11.931817,-4.2052 c 6.562499,-2.31286 13.465907,-4.81868 15.340907,-5.56849 l 3.40909,-1.36329 0.3788,-18.50338 c 0.22777,-11.1266 0.68957,-18.8972 1.15834,-19.49121 1.28804,-1.6322 5.22418,-1.90869 7.09607,-0.49847 1.54829,1.16645 1.59407,1.68422 1.59407,18.0294 l 0,16.82848 3.81592,-1.13315 c 5.39186,-1.60113 7.97305,-1.47126 10.63629,0.53516 C 134,187.53706 134,187.53706 134,195.61522 c 0,8.07815 0,8.07815 -2.21905,9.74991 -1.22046,0.91947 -4.97045,2.60594 -8.33332,3.74771 l -6.1143,2.07595 0,17.3174 0,17.3174 3.81592,-1.13315 c 5.39186,-1.60113 7.97305,-1.47126 10.63629,0.53516 C 134,246.89391 134,246.89391 134,255.00346 c 0,8.10954 0,8.10954 -2.54656,9.91893 -1.40061,0.99516 -5.06537,2.60652 -8.14393,3.5808 l -5.5974,1.77142 -0.37878,18.46003 c -0.2277,11.0968 -0.68974,18.85406 -1.15834,19.44788 -1.0993,1.39301 -4.92929,1.84752 -6.79621,0.8065 -1.4408,-0.80342 -1.53374,-1.68289 -1.89393,-17.92265 l -0.3788,-17.07777 -15.340903,5.43792 -15.340907,5.43792 -0.02409,18.58473 c -0.02626,20.24975 -0.03187,20.27683 -4.334655,20.92516 -1.740907,0.26231 -2.689936,0.0542 -3.89567,-0.85414 -1.549351,-1.16724 -1.594068,-1.68006 -1.594068,-18.28124 l 0,-17.08032 -11.931817,4.2052 c -6.562499,2.31286 -13.465909,4.81868 -15.340908,5.56849 l -3.409091,1.36329 -0.378788,18.50338 c -0.227774,11.1266 -0.689572,18.8972 -1.158339,19.49121 -1.288047,1.6322 -5.224202,1.9087 -7.096079,0.49847 z m 30.413509,-70.83401 8.901513,-3.0189 0,-17.58944 0,-17.58945 -5.871212,2.17969 c -3.229165,1.19883 -8.424244,3.05214 -11.544617,4.11846 -3.120375,1.06633 -7.381737,2.60175 -9.469697,3.41207 l -3.79629,1.47329 -0.20031,17.48665 -0.200309,17.48664 6.639703,-2.47005 c 3.651838,-1.35854 10.645385,-3.82856 15.541219,-5.48896 z m 36.165829,-12.61215 c 3.120372,-1.06633 7.381741,-2.60175 9.469701,-3.41207 l 3.79628,-1.47329 0.20031,-17.48665 0.20031,-17.48664 -6.6397,2.47005 c -3.651839,1.35854 -10.645385,3.82856 -15.541219,5.48896 l -8.901513,3.0189 0,17.58944 0,17.58945 5.871211,-2.17969 c 3.229166,-1.19883 8.424242,-3.05214 11.54462,-4.11846 z"
       id="path2453"
       inkscape:connector-curvature="0" />
  </g>
</svg>
